<svg width="472" height="511" viewBox="0 0 472 511" fill="none" xmlns="http://www.w3.org/2000/svg">
<g clip-path="url(#clip0_74_2)">
<path d="M48.284 331.547L31.646 358.31L15.009 331.547H0V394.841H13.654V353.79L31.286 380.553H31.646L49.46 353.519V394.841H63.295V331.547H48.284Z" fill="white"/>
<mask id="mask0_74_2" style="mask-type:luminance" maskUnits="userSpaceOnUse" x="0" y="0" width="472" height="511">
<path d="M471.688 0H0V510.392H471.688V0Z" fill="white"/>
</mask>
<g mask="url(#mask0_74_2)">
<path d="M104.893 395.834C87.893 395.834 77.493 386.34 77.493 367.714V331.545H91.423V367.351C91.423 377.66 96.576 382.993 105.075 382.993C113.574 382.993 118.723 377.84 118.723 367.804V331.545H132.652V367.261C132.652 386.432 121.892 395.834 104.893 395.834Z" fill="white"/>
<path d="M185.279 394.841L171.717 374.587H160.776V394.841H146.85V331.547H175.785C190.704 331.547 199.655 339.413 199.655 352.434V352.616C199.655 362.832 194.14 369.253 186.094 372.236L201.555 394.841H185.279ZM185.551 353.157C185.551 347.189 181.391 344.116 174.61 344.116H160.776V362.29H174.882C181.663 362.29 185.551 358.674 185.551 353.337V353.157Z" fill="white"/>
<path d="M259.34 394.842L253.552 380.642H226.787L221.001 394.842H206.801L233.928 331.094H246.767L273.892 394.842H259.34ZM240.169 347.823L231.763 368.348H248.58L240.169 347.823Z" fill="white"/>
<path d="M283.665 394.841V331.546H297.589V382.181H329.147V394.84L283.665 394.841Z" fill="white"/>
<path d="M379.242 394.841V369.432H353.562V394.84H339.638V331.546H353.562V356.593H379.242V331.546H393.167V394.84L379.242 394.841Z" fill="white"/>
<path d="M455.471 394.842L449.683 380.642H422.918L417.132 394.842H402.932L430.059 331.094H442.898L470.023 394.842H455.471ZM436.3 347.823L427.892 368.348H444.709L436.3 347.823Z" fill="white"/>
<path d="M26.277 489.305H15.113V509.343H0.420959V442.551H27.71C43.644 442.551 53.28 451.999 53.28 465.642V465.833C53.28 481.29 41.258 489.305 26.28 489.305M38.398 465.928C38.398 459.345 33.819 455.815 26.473 455.815H15.113V476.234H26.754C34.102 476.234 38.395 471.844 38.395 466.119L38.398 465.928Z" fill="#CB1D1F"/>
<path d="M107.19 509.343L101.083 494.363H72.843L66.736 509.343H51.756L80.38 442.074H93.93L122.554 509.343H107.19ZM86.963 459.726L78.09 481.385H95.837L86.963 459.726Z" fill="#CB1D1F"/>
<path d="M158.335 510.392C140.397 510.392 129.424 500.374 129.424 480.718V442.551H144.118V480.336C144.118 491.212 149.559 496.842 158.526 496.842C167.493 496.842 172.934 491.405 172.934 480.813V442.551H187.628V480.241C187.628 500.469 176.273 510.392 158.335 510.392Z" fill="#CB1D1F"/>
<path d="M202.612 509.343V442.552H217.3V495.982H250.6V509.341L202.612 509.343Z" fill="#CB1D1F"/>
<path d="M277.036 442.551H262.342V509.341H277.036V442.551Z" fill="#CB1D1F"/>
<path d="M317.493 510.297C307.055 510.336 296.967 506.532 289.154 499.61L297.839 489.21C303.85 494.172 310.147 497.321 317.781 497.321C323.79 497.321 327.418 494.935 327.418 491.021V490.83C327.418 487.109 325.128 485.202 313.964 482.34C300.511 478.904 291.828 475.183 291.828 461.921V461.73C291.828 449.612 301.56 441.597 315.205 441.597C324.211 441.451 332.985 444.455 340.013 450.089L332.378 461.158C326.462 457.058 320.642 454.573 315.014 454.573C309.386 454.573 306.425 457.15 306.425 460.393V460.584C306.425 464.974 309.289 466.404 320.833 469.362C334.383 472.892 342.017 477.762 342.017 489.4V489.591C342.017 502.853 331.902 510.296 317.494 510.296" fill="#CB1D1F"/>
<path d="M383.618 456.101V509.343H368.926V456.101H348.6V442.553H403.942V456.101H383.618Z" fill="#CB1D1F"/>
<path d="M456.325 509.343L450.219 494.363H421.975L415.868 509.343H400.888L429.512 442.074H443.062L471.686 509.343H456.325ZM436.097 459.726L427.223 481.385H444.975L436.097 459.726Z" fill="#CB1D1F"/>
<path d="M402.242 150.131C377.116 178.395 349.113 204.091 322.357 230.903C320.648 232.409 319.134 234.123 317.848 236.003C325.367 236 332.885 235.996 340.403 235.992C367.683 208.725 394.818 181.31 422.229 154.177C425.154 151.282 430.277 150.447 434.529 149.137C436.55 148.514 438.969 149.342 441.116 148.975C441.161 148.968 441.204 148.964 441.247 148.957C449.328 141.056 457.409 133.152 465.488 125.245C464.572 125.166 463.655 125.114 462.741 125.024C437.185 122.494 419.198 131.051 402.241 150.124" fill="#CB1D1F"/>
<path d="M111.46 117.904C114.017 117.791 116.568 118.237 118.935 119.211C121.302 120.185 123.429 121.663 125.166 123.543L125.648 124.025C125.348 91.648 125.648 59.264 125.31 26.886C125.236 19.858 127.645 15.161 132.422 10.414C135.859 7.00002 139.277 3.56602 142.712 0.149017C137.174 0.172017 131.636 0.190017 126.1 0.234017C122.543 0.368053 119.144 1.73479 116.485 4.10002C112.437 8.00002 108.41 11.916 104.366 15.816C104.379 16.9066 104.169 17.9883 103.749 18.9949C103.329 20.0014 102.708 20.9117 101.924 21.67C101.14 22.4283 100.21 23.0186 99.1896 23.4048C98.1696 23.791 97.0815 23.9649 95.992 23.916C74.3453 44.816 52.732 65.7554 31.152 86.734C32.0064 86.2316 32.9716 85.9479 33.962 85.908C37.832 85.976 41.612 90.994 45.432 93.866C45.376 95.2247 45.3196 96.5843 45.263 97.945C41.213 100.421 37.336 104.534 33.075 104.978C31.7274 105.18 30.3507 105.035 29.0744 104.558C27.798 104.081 26.6639 103.288 25.7787 102.252C24.8935 101.216 24.2862 99.9722 24.0141 98.6371C23.742 97.302 23.8138 95.9197 24.223 94.62C24.4586 93.8779 24.7887 93.1691 25.205 92.511C20.3176 97.265 15.4276 102.017 10.535 106.766C10.0398 110.505 10.192 114.301 10.985 117.988C44.477 118.013 77.97 118.08 111.46 117.9M94.247 31.587C98.49 32.278 102.164 36.474 106.093 39.104C106.082 40.482 106.072 41.8607 106.062 43.24C102.106 45.84 98.074 50.547 94.216 50.406C90.853 50.284 85.716 45.134 84.894 41.423C84.5507 40.1081 84.5487 38.7274 84.8881 37.4115C85.2275 36.0956 85.8971 34.888 86.8335 33.9032C87.7699 32.9183 88.9421 32.1887 90.2392 31.7834C91.5363 31.3781 92.9164 31.3105 94.247 31.587ZM104.235 68.435C103.643 72.624 99.086 76.251 96.295 80.13C94.8896 80.1014 93.484 80.073 92.078 80.045C89.534 76.04 84.825 71.886 85.084 68.073C85.32 64.628 90.573 59.556 94.348 58.773C100.264 57.553 105.053 62.631 104.235 68.431M93.942 85.731C98.172 86.166 102.002 90.485 106.013 93.07L106.126 97.226C102.249 99.946 98.348 104.792 94.5 104.75C91.116 104.714 85.882 99.727 84.872 96C83.253 90.023 88.062 85.127 93.942 85.731ZM52.483 92.616C56.459 90.189 60.657 85.594 64.345 85.973C67.735 86.322 72.458 91.651 73.22 95.464C74.407 101.4 69.692 106.121 63.652 105.012C59.532 104.255 56.065 99.926 52.306 97.193C52.3653 95.667 52.425 94.1414 52.483 92.616Z" fill="#CB1D1F"/>
<path d="M129.092 28.953C129.383 61.787 129.377 94.6227 129.072 127.46C163.622 162.23 198.303 196.868 233.115 231.375C235.447 233.685 239.286 235.727 242.446 235.758C262.083 235.941 281.721 236.026 301.361 236.012C303.174 234.937 305.174 234.215 307.255 233.884C311.438 233.134 316.217 231.439 319.137 228.553C353.037 195.053 386.575 161.18 420.437 127.634C423.278 124.818 427.731 122.028 431.47 121.981C443.938 121.823 456.409 121.767 468.879 121.74C469.579 120.871 470.335 119.84 471.454 118.446C468.163 118.295 466.179 118.128 464.194 118.126C443.823 118.115 423.454 118.111 403.086 118.112C380.106 140.931 357.236 163.861 334.475 186.901C332.26 189.148 331.275 193.326 331.066 196.692C330.629 203.664 326.966 208.301 320.658 207.172C317.043 206.526 312.245 201.217 311.648 197.427C310.608 190.82 315.687 187.839 322.404 187.227C325.894 186.909 330.074 185.548 332.478 183.173C354.333 161.586 376.008 139.819 397.75 118.117C385.817 118.128 373.883 118.15 361.95 118.185C359.64 118.262 357.341 117.839 355.21 116.944C353.079 116.049 351.167 114.704 349.605 113.001C347.828 111.216 346.048 109.433 344.265 107.65C343.123 108.796 341.971 109.937 340.834 111.086C335.703 116.277 329.497 120.486 330.471 129.798C330.703 132.022 323.636 136.998 319.928 136.998C317.148 136.998 311.835 130.704 312.22 127.829C312.72 124.097 318.388 117.741 320.72 118.196C327.949 119.608 331.069 115.38 334.968 111.478C337.154 109.29 339.336 107.097 341.514 104.898C330.496 93.8334 319.467 82.7793 308.428 71.736C294.02 85.896 279.773 100.218 265.688 114.701C260.042 120.527 254.342 123.294 245.988 123.112C220.103 122.554 194.194 122.722 168.304 123.117C164.562 123.173 160.304 125.317 157.269 127.743C151.931 132.014 146.224 133.132 142.496 127.702C140.387 124.629 140.517 117.602 142.696 114.519C146.544 109.055 152.239 110.24 157.419 114.776C159.919 116.962 163.664 118.876 166.867 118.909C194.341 119.229 221.822 119.29 249.292 118.866C253.121 118.807 257.766 116.579 260.568 113.844C275.743 99.029 290.609 83.894 305.668 68.963C301.767 65.0603 297.87 61.1543 293.975 57.245C282.739 68.492 271.521 79.757 260.125 90.84C256.747 93.8717 252.423 95.6387 247.889 95.84C221.378 96.283 194.852 95.883 168.339 96.266C164.579 96.32 160.295 98.394 157.239 100.798C151.87 105.026 146.145 106.091 142.439 100.692C140.339 97.639 140.512 90.55 142.727 87.545C146.651 82.216 152.356 83.47 157.488 88.024C159.948 90.206 163.699 92.069 166.888 92.106C193.72 92.424 220.558 92.487 247.388 92.059C251.204 91.998 255.832 89.765 258.622 87.037C269.599 76.3037 280.502 65.4927 291.333 54.604C287.782 51.0507 284.232 47.4953 280.683 43.938C274.247 50.37 267.703 56.6863 261.05 62.887C257.246 66.327 252.393 68.3835 247.275 68.724C221.104 69.278 194.909 68.787 168.734 69.206C164.7 69.271 160.26 71.556 156.811 73.967C151.635 77.587 146.869 78.382 142.401 73.823C137.933 69.264 138.128 63.9 142.801 59.6C147.524 55.253 152.322 56.433 157.216 60.291C160.071 62.542 163.851 64.92 167.248 64.969C193.741 65.35 220.248 65.403 246.737 64.947C251.274 64.6815 255.584 62.8748 258.954 59.826C265.399 53.7393 271.751 47.5523 278.011 41.265C271.204 34.455 264.401 27.6427 257.601 20.828C253.535 24.684 249.494 28.557 245.645 32.595C231.5 47.438 231.251 47.201 210.665 47.179C206.243 47.174 201.723 46.605 197.428 47.35C193.663 47.9034 190.105 49.4247 187.104 51.765C181.884 56.283 176.233 57.531 172.413 52.022C170.268 48.927 170.285 41.878 172.438 38.782C176.272 33.267 181.986 34.563 187.157 39.046C189.872 41.2544 193.119 42.7101 196.574 43.267C219.057 47.008 237.466 41.079 251.624 21.842C252.606 20.505 253.645 19.21 254.713 17.936C251.246 14.4633 247.78 10.992 244.313 7.52201C242.495 7.51721 240.733 6.89473 239.316 5.75671C237.899 4.61868 236.91 3.03271 236.513 1.25901C234.597 0.399141 232.516 -0.0302712 230.416 0.00101483C228.43 0.00801483 226.445 0.00601483 224.459 0.0120148C223.597 0.695949 222.592 1.17695 221.519 1.41932C220.445 1.66168 219.331 1.65919 218.259 1.41201C217.105 1.14817 216.008 0.681229 215.018 0.0330148C207.413 0.0456815 199.806 0.0546815 192.199 0.0600148C182.683 9.66601 173.166 19.2703 163.647 28.873C161.286 31.262 160.061 35.49 159.709 39.004C159.033 45.724 155.828 50.731 149.383 49.704C145.66 49.104 140.59 44.123 139.867 40.386C138.608 33.886 143.681 30.694 150.247 29.686C154.034 29.105 158.516 27.88 161.091 25.328C169.569 16.932 178.02 8.50968 186.443 0.0610148C173.658 0.0670148 160.874 0.0876815 148.09 0.123015C144.018 4.19302 139.968 8.28601 135.89 12.35C133.606 14.447 131.812 17.0218 130.637 19.891C129.462 22.7602 128.933 25.8533 129.09 28.95M321.373 145.581C327.514 144.431 332.1 149.158 330.884 155.081C330.11 158.836 325.33 164.037 321.937 164.368C318.252 164.726 314.094 160.188 310.137 157.787L309.997 153.156C313.766 150.513 317.253 146.356 321.37 145.585M281.854 127.949C282.516 123.703 286.754 120.016 289.396 116.08C290.776 116.087 292.156 116.094 293.536 116.1C296.161 120.073 300.897 124.112 300.772 128C300.664 131.347 295.466 136.456 291.724 137.314C285.859 138.66 280.9 134.081 281.854 127.953M281.825 154.7C282.66 150.6 287.064 147.223 289.873 143.523L294.443 143.823C296.757 147.857 301.204 152.152 300.755 155.847C300.345 159.208 294.947 163.799 291.147 164.481C285.159 165.555 280.602 160.701 281.825 154.697M219.749 149.238C227.214 149.551 229.717 154.612 227.961 162.271C229.278 164.471 230.226 167.028 231.968 168.804C246.128 183.241 260.343 197.626 274.82 211.742C276.639 213.514 280.076 214.376 282.755 214.36C289.525 214.317 294.061 217.071 294.534 223.829C294.968 230.052 291.198 234.374 284.892 234.329C277.665 234.28 274.548 229.784 274.658 222.46C274.681 219.552 273.664 216.731 271.79 214.507C257.923 200.218 243.853 186.131 229.579 172.247C227.45 170.277 224.679 169.145 221.779 169.061C214.597 169.23 209.85 166.583 209.613 159.216C209.408 152.892 213.442 148.971 219.746 149.236M215.828 7.96201L219.988 7.81801C222.782 11.647 227.25 15.184 227.971 19.371C229.002 25.344 224.256 30.208 218.295 29.002C214.495 28.234 209.074 23.349 208.873 20.035C208.637 16.167 213.294 12 215.828 7.96201Z" fill="#CB1D1F"/>
<path d="M8.58598 108.669L3.95498 113.169C2.87698 114.216 1.98998 115.461 0.294983 117.464C3.04198 117.703 4.83298 117.993 6.62298 117.993C7.27798 117.993 7.93098 117.993 8.58598 117.993V108.669Z" fill="#CB1D1F"/>
<path d="M423.424 158.123C397.537 184.052 371.679 210.007 345.848 235.989C347.19 235.989 348.536 235.989 349.878 235.989C351.334 236.025 352.757 235.549 353.899 234.643C364.91 223.918 375.749 213.018 386.731 202.263C403.508 185.832 420.299 169.416 437.102 153.013C434.715 153.157 432.338 153.263 430.002 153.213C427.832 153.168 425.378 156.167 423.424 158.125" fill="#CB1D1F"/>
</g>
</g>
<defs>
<clipPath id="clip0_74_2">
<rect width="471.688" height="510.392" fill="white"/>
</clipPath>
</defs>
</svg>
